<svg width="22" height="22" viewBox="0 0 22 22" fill="none" xmlns="http://www.w3.org/2000/svg">
<path fill-rule="evenodd" clip-rule="evenodd" d="M9.502 0.75C4.66946 0.75 0.751953 4.66751 0.751953 9.5C0.751953 14.3325 4.66946 18.25 9.502 18.25C11.4668 18.25 13.2818 17.6013 14.7421 16.5079L19.2342 21C19.7223 21.4882 20.5138 21.4882 21.002 21C21.4901 20.5118 21.4901 19.7204 21.002 19.2322L16.5099 14.7401C17.6032 13.2798 18.252 11.4649 18.252 9.5C18.252 4.66751 14.3344 0.75 9.502 0.75ZM3.25195 9.5C3.25195 6.04822 6.05017 3.25 9.502 3.25C12.9537 3.25 15.752 6.04822 15.752 9.5C15.752 11.2262 15.0538 12.787 13.9214 13.9194C12.789 15.0518 11.2282 15.75 9.502 15.75C6.05017 15.75 3.25195 12.9518 3.25195 9.5Z" fill="black"/>
</svg>
