<svg width="48" height="48" viewBox="0 0 48 48" fill="none" xmlns="http://www.w3.org/2000/svg">
<path fill-rule="evenodd" clip-rule="evenodd" d="M41.5572 17.8929L38.5029 10.2572C38.1992 9.4979 37.4638 9 36.646 9H16.7399C16.2625 9 15.8008 9.17078 15.4383 9.48149L9.63097 14.4592C9.21813 14.8131 8.90923 15.2725 8.73729 15.7883L6.4388 22.6838C6.22296 23.3313 6.70493 24 7.38749 24H8.00006V38H32.0001L38.0001 30V26L37.0241 27.464C36.5836 28.1248 35.5857 28.0331 35.2729 27.3032L33.0001 22V17L36.3163 23.6324C36.6388 24.2774 37.5172 24.3794 37.9789 23.8254L41.2367 19.916C41.707 19.3517 41.83 18.5749 41.5572 17.8929ZM31.0001 15H13.0001L17.5001 11H35.0001L31.0001 15ZM11.0001 18V36H30.0001V18H11.0001Z" fill="#D9D9D9"/>
<path fill-rule="evenodd" clip-rule="evenodd" d="M18.5 22C19.2437 22 19.9331 22.2319 20.5 22.6273C21.0669 22.2319 21.7563 22 22.5 22C24.4331 22 26 23.567 26 25.5C26 26.2436 25.7683 26.9331 25.3728 27.5C25.7683 28.0669 26 28.7564 26 29.5C26 31.433 24.4331 33 22.5 33C21.7563 33 21.0669 32.7681 20.5 32.3727C19.9331 32.7681 19.2437 33 18.5 33C16.5669 33 15 31.433 15 29.5C15 28.7564 15.2317 28.0669 15.6272 27.5C15.2317 26.9331 15 26.2436 15 25.5C15 23.567 16.5669 22 18.5 22Z" fill="#19191B"/>
</svg>
