<svg width="48" height="48" viewBox="0 0 48 48" fill="none" xmlns="http://www.w3.org/2000/svg">
<path fill-rule="evenodd" clip-rule="evenodd" d="M41.5572 17.8929L38.5029 10.2572C38.1992 9.4979 37.4637 9 36.6459 9H16.7515C16.267 9 15.799 9.17584 15.4345 9.49485L8.68299 15.4024C8.24896 15.7822 8 16.3308 8 16.9075V38H32L38 30V26L37.024 27.464C36.5835 28.1248 35.5856 28.0331 35.2728 27.3032L33 22V17L36.3162 23.6324C36.6387 24.2774 37.5172 24.3794 37.9789 23.8254L41.2366 19.916C41.7069 19.3517 41.83 18.5749 41.5572 17.8929ZM31 15H21L25 11H35L31 15ZM11 18V36H30V18H11Z" fill="#D9D9D9"/>
<path fill-rule="evenodd" clip-rule="evenodd" d="M18.5 22C19.2436 22 19.9331 22.2319 20.5 22.6273C21.0669 22.2319 21.7564 22 22.5 22C24.433 22 26 23.567 26 25.5C26 26.2436 25.7681 26.9331 25.3727 27.5C25.7681 28.0669 26 28.7564 26 29.5C26 31.433 24.433 33 22.5 33C21.7564 33 21.0669 32.7681 20.5 32.3727C19.9331 32.7681 19.2436 33 18.5 33C16.567 33 15 31.433 15 29.5C15 28.7564 15.2319 28.0669 15.6273 27.5C15.2319 26.9331 15 26.2436 15 25.5C15 23.567 16.567 22 18.5 22Z" fill="#19191B"/>
</svg>
