<svg width="18" height="19" viewBox="0 0 18 19" fill="none" xmlns="http://www.w3.org/2000/svg">
<path d="M0.000976562 9.8284C0.000976562 9.2979 0.211687 8.7892 0.586757 8.4142L7.5868 1.41416C8.3678 0.633107 9.6341 0.633107 10.4152 1.41416L17.4152 8.4142C17.7903 8.7892 18.001 9.2979 18.001 9.8284V18C18.001 18.5522 17.5533 19 17.001 19H12.001C11.4487 19 11.001 18.5522 11.001 18V14C11.001 13.4477 10.5533 13 10.001 13H8.001C7.4487 13 7.001 13.4477 7.001 14V18C7.001 18.5522 6.55326 19 6.00098 19H1.00098C0.448687 19 0.000976562 18.5522 0.000976562 18V9.8284Z" fill="black"/>
</svg>
